<svg width="21" height="15" viewBox="0 0 21 15" fill="none" xmlns="http://www.w3.org/2000/svg">
<mask id="mask0_2005_913" style="mask-type:alpha" maskUnits="userSpaceOnUse" x="0" y="0" width="21" height="15">
<path d="M19 0H2C0.89543 0 0 0.89543 0 2V13C0 14.1046 0.89543 15 2 15H19C20.1046 15 21 14.1046 21 13V2C21 0.89543 20.1046 0 19 0Z" fill="white"/>
</mask>
<g mask="url(#mask0_2005_913)">
<path d="M19 0H2C0.89543 0 0 0.89543 0 2V13C0 14.1046 0.89543 15 2 15H19C20.1046 15 21 14.1046 21 13V2C21 0.89543 20.1046 0 19 0Z" fill="#E02600"/>
<path fill-rule="evenodd" clip-rule="evenodd" d="M5.49812 7.23L4.02812 8.003L4.30812 6.366L3.12012 5.206L4.76312 4.969L5.49812 3.479L6.23212 4.969L7.87512 5.206L6.68512 6.366L6.96712 8.002L5.49812 7.23ZM9.00012 3H10.0001V4H9.00012V3ZM10.0001 5H11.0001V6H10.0001V5ZM10.0001 7H11.0001V8H10.0001V7ZM9.00012 9H10.0001V10H9.00012V9Z" fill="#FFE000"/>
<path d="M19 0.5H2C1.17157 0.5 0.5 1.17157 0.5 2V13C0.5 13.8284 1.17157 14.5 2 14.5H19C19.8284 14.5 20.5 13.8284 20.5 13V2C20.5 1.17157 19.8284 0.5 19 0.5Z" stroke="black" stroke-opacity="0.1"/>
</g>
</svg>
